<mxfile host="app.diagrams.net" modified="2022-04-17T10:41:23.968Z" agent="5.0 (Windows NT 10.0; Win64; x64) AppleWebKit/537.36 (KHTML, like Gecko) Chrome/99.0.4844.74 Safari/537.36" etag="MP6LsTKHfXq0SAA4AgP2" version="17.4.5" type="github">
  <diagram id="SX8SOkEi1vIwziMWZErt" name="Page-1">
    <mxGraphModel dx="1022" dy="1644" grid="1" gridSize="10" guides="1" tooltips="1" connect="1" arrows="1" fold="1" page="1" pageScale="1" pageWidth="827" pageHeight="1169" math="0" shadow="0">
      <root>
        <mxCell id="0" />
        <mxCell id="1" parent="0" />
        <mxCell id="nMnjMDaAtpywQw12BWGc-1" value="" style="rounded=0;whiteSpace=wrap;html=1;" vertex="1" parent="1">
          <mxGeometry x="190" y="360" width="520" height="140" as="geometry" />
        </mxCell>
        <mxCell id="nMnjMDaAtpywQw12BWGc-2" value="共享变量" style="ellipse;whiteSpace=wrap;html=1;" vertex="1" parent="1">
          <mxGeometry x="190" y="420" width="120" height="80" as="geometry" />
        </mxCell>
        <mxCell id="nMnjMDaAtpywQw12BWGc-3" value="共享变量" style="ellipse;whiteSpace=wrap;html=1;" vertex="1" parent="1">
          <mxGeometry x="384" y="420" width="120" height="80" as="geometry" />
        </mxCell>
        <mxCell id="nMnjMDaAtpywQw12BWGc-4" value="共享变量" style="ellipse;whiteSpace=wrap;html=1;" vertex="1" parent="1">
          <mxGeometry x="590" y="420" width="120" height="80" as="geometry" />
        </mxCell>
        <mxCell id="nMnjMDaAtpywQw12BWGc-5" value="主内存" style="text;html=1;strokeColor=none;fillColor=none;align=center;verticalAlign=middle;whiteSpace=wrap;rounded=0;" vertex="1" parent="1">
          <mxGeometry x="414" y="380" width="60" height="30" as="geometry" />
        </mxCell>
        <mxCell id="nMnjMDaAtpywQw12BWGc-6" value="" style="shape=flexArrow;endArrow=classic;startArrow=classic;html=1;rounded=0;" edge="1" parent="1">
          <mxGeometry width="100" height="100" relative="1" as="geometry">
            <mxPoint x="250" y="360" as="sourcePoint" />
            <mxPoint x="250" y="190" as="targetPoint" />
          </mxGeometry>
        </mxCell>
        <mxCell id="nMnjMDaAtpywQw12BWGc-7" value="" style="shape=flexArrow;endArrow=classic;startArrow=classic;html=1;rounded=0;" edge="1" parent="1">
          <mxGeometry width="100" height="100" relative="1" as="geometry">
            <mxPoint x="640" y="360" as="sourcePoint" />
            <mxPoint x="640" y="190" as="targetPoint" />
          </mxGeometry>
        </mxCell>
        <mxCell id="nMnjMDaAtpywQw12BWGc-8" value="" style="endArrow=block;dashed=1;endFill=0;endSize=12;html=1;rounded=0;" edge="1" parent="1">
          <mxGeometry width="160" relative="1" as="geometry">
            <mxPoint x="480" y="284.5" as="sourcePoint" />
            <mxPoint x="630" y="284.5" as="targetPoint" />
          </mxGeometry>
        </mxCell>
        <mxCell id="nMnjMDaAtpywQw12BWGc-9" value="" style="endArrow=block;dashed=1;endFill=0;endSize=12;html=1;rounded=0;" edge="1" parent="1">
          <mxGeometry width="160" relative="1" as="geometry">
            <mxPoint x="420" y="284.5" as="sourcePoint" />
            <mxPoint x="260" y="284.5" as="targetPoint" />
          </mxGeometry>
        </mxCell>
        <mxCell id="nMnjMDaAtpywQw12BWGc-10" value="JMM控制" style="text;html=1;strokeColor=none;fillColor=none;align=center;verticalAlign=middle;whiteSpace=wrap;rounded=0;" vertex="1" parent="1">
          <mxGeometry x="420" y="270" width="60" height="30" as="geometry" />
        </mxCell>
        <mxCell id="nMnjMDaAtpywQw12BWGc-11" value="" style="rounded=0;whiteSpace=wrap;html=1;" vertex="1" parent="1">
          <mxGeometry x="190" y="60" width="120" height="130" as="geometry" />
        </mxCell>
        <mxCell id="nMnjMDaAtpywQw12BWGc-12" value="共享变量的副本" style="ellipse;whiteSpace=wrap;html=1;" vertex="1" parent="1">
          <mxGeometry x="190" y="110" width="120" height="80" as="geometry" />
        </mxCell>
        <mxCell id="nMnjMDaAtpywQw12BWGc-13" value="本地内存A" style="text;html=1;strokeColor=none;fillColor=none;align=center;verticalAlign=middle;whiteSpace=wrap;rounded=0;" vertex="1" parent="1">
          <mxGeometry x="220" y="60" width="60" height="30" as="geometry" />
        </mxCell>
        <mxCell id="nMnjMDaAtpywQw12BWGc-14" value="" style="rounded=0;whiteSpace=wrap;html=1;" vertex="1" parent="1">
          <mxGeometry x="580" y="60" width="120" height="130" as="geometry" />
        </mxCell>
        <mxCell id="nMnjMDaAtpywQw12BWGc-15" value="共享变量的副本" style="ellipse;whiteSpace=wrap;html=1;" vertex="1" parent="1">
          <mxGeometry x="580" y="110" width="120" height="80" as="geometry" />
        </mxCell>
        <mxCell id="nMnjMDaAtpywQw12BWGc-16" value="本地内存B" style="text;html=1;strokeColor=none;fillColor=none;align=center;verticalAlign=middle;whiteSpace=wrap;rounded=0;" vertex="1" parent="1">
          <mxGeometry x="610" y="60" width="60" height="30" as="geometry" />
        </mxCell>
        <mxCell id="nMnjMDaAtpywQw12BWGc-17" value="线程A" style="rounded=0;whiteSpace=wrap;html=1;" vertex="1" parent="1">
          <mxGeometry x="190" y="-140" width="120" height="60" as="geometry" />
        </mxCell>
        <mxCell id="nMnjMDaAtpywQw12BWGc-18" value="" style="shape=flexArrow;endArrow=classic;startArrow=classic;html=1;rounded=0;exitX=0.5;exitY=0;exitDx=0;exitDy=0;entryX=0.5;entryY=1;entryDx=0;entryDy=0;" edge="1" parent="1" source="nMnjMDaAtpywQw12BWGc-13" target="nMnjMDaAtpywQw12BWGc-17">
          <mxGeometry width="100" height="100" relative="1" as="geometry">
            <mxPoint x="160" y="30" as="sourcePoint" />
            <mxPoint x="260" y="-70" as="targetPoint" />
          </mxGeometry>
        </mxCell>
        <mxCell id="nMnjMDaAtpywQw12BWGc-19" value="线程B" style="rounded=0;whiteSpace=wrap;html=1;" vertex="1" parent="1">
          <mxGeometry x="580" y="-140" width="120" height="60" as="geometry" />
        </mxCell>
        <mxCell id="nMnjMDaAtpywQw12BWGc-20" value="" style="shape=flexArrow;endArrow=classic;startArrow=classic;html=1;rounded=0;exitX=0.5;exitY=0;exitDx=0;exitDy=0;entryX=0.5;entryY=1;entryDx=0;entryDy=0;" edge="1" parent="1">
          <mxGeometry width="100" height="100" relative="1" as="geometry">
            <mxPoint x="639.5" y="60" as="sourcePoint" />
            <mxPoint x="639.5" y="-80" as="targetPoint" />
          </mxGeometry>
        </mxCell>
      </root>
    </mxGraphModel>
  </diagram>
</mxfile>
